<svg width="212" height="213" viewBox="0 0 212 213" fill="none" xmlns="http://www.w3.org/2000/svg">
<mask id="path-1-outside-1_715_4348" maskUnits="userSpaceOnUse" x="0" y="0.728394" width="212" height="212" fill="black">
<rect fill="white" y="0.728394" width="212" height="212"/>
<path d="M12 24.7284C12 11.4736 22.7452 0.728394 36 0.728394H188C201.255 0.728394 212 11.4736 212 24.7284V176.728C212 189.983 201.255 200.728 188 200.728H36C22.7452 200.728 12 189.983 12 176.728V24.7284Z"/>
</mask>
<path d="M12 24.7284C12 11.4736 22.7452 0.728394 36 0.728394H188C201.255 0.728394 212 11.4736 212 24.7284V176.728C212 189.983 201.255 200.728 188 200.728H36C22.7452 200.728 12 189.983 12 176.728V24.7284Z" fill="#85ADA9"/>
<path d="M12 0.728394H212H12ZM212 176.728C212 196.611 195.882 212.728 176 212.728H36C16.1177 212.728 0 196.611 0 176.728H24C24 183.356 29.3726 188.728 36 188.728H188C201.255 188.728 212 183.356 212 176.728ZM36 212.728C16.1177 212.728 0 196.611 0 176.728V36.7284C0 16.8461 16.1177 0.728394 36 0.728394C29.3726 0.728394 24 11.4736 24 24.7284V176.728C24 183.356 29.3726 188.728 36 188.728V212.728ZM212 0.728394V200.728V0.728394Z" fill="#0F766E" mask="url(#path-1-outside-1_715_4348)"/>
<g clip-path="url(#clip0_715_4348)">
<path d="M96.3131 155.631V116.415H127.686V155.631C127.686 159.944 131.215 163.474 135.529 163.474H159.058C163.372 163.474 166.901 159.944 166.901 155.631V100.729H180.235C183.843 100.729 185.568 96.2581 182.823 93.9051L117.254 34.8463C114.274 32.1796 109.725 32.1796 106.744 34.8463L41.1759 93.9051C38.5092 96.2581 40.1563 100.729 43.7641 100.729H57.0974V155.631C57.0974 159.944 60.6268 163.474 64.9406 163.474H88.47C92.7837 163.474 96.3131 159.944 96.3131 155.631Z" fill="#0F766E"/>
</g>
<defs>
<clipPath id="clip0_715_4348">
<rect width="188.235" height="188.235" fill="white" transform="translate(17.8823 6.61096)"/>
</clipPath>
</defs>
</svg>
